<svg width="297" height="239" viewBox="0 0 297 239" fill="none" xmlns="http://www.w3.org/2000/svg">
<path d="M220.339 61.7007C223.982 65.3437 223.982 71.2502 220.339 74.8932C216.696 78.5362 210.79 78.5363 207.147 74.8932L163.384 31.1304C159.741 27.4874 159.741 21.5809 163.384 17.9379C167.027 14.2948 172.933 14.2948 176.576 17.9379L220.339 61.7007Z" fill="#F46F17"/>
<path d="M63.691 218.349C67.334 221.992 67.334 227.898 63.691 231.541C60.048 235.184 54.1415 235.184 50.4984 231.541L6.73566 187.779C3.09263 184.136 3.09264 178.229 6.73567 174.586C10.3787 170.943 16.2852 170.943 19.9282 174.586L63.691 218.349Z" fill="#F46F17"/>
<path d="M99.4906 99.806C93.522 97.0576 92.1178 89.2038 96.7641 84.5574C99.6069 81.7146 103.938 80.9844 107.556 82.7381L113.026 85.3893C127.891 92.5952 143.425 76.8364 136.006 62.076L133.338 56.7667C131.584 53.2775 132.265 49.057 135.026 46.2956C139.436 41.8855 146.88 43.1487 149.588 48.7666L176.165 103.895C179.121 110.026 177.877 117.355 173.064 122.168C168.325 126.907 161.136 128.192 155.048 125.389L99.4906 99.806Z" fill="#121212" fill-opacity="0.25"/>
<path d="M234.008 43.2495C236.756 49.218 244.61 50.6222 249.256 45.9759C252.099 43.1331 252.83 38.8017 251.076 35.184L248.425 29.7145C241.219 14.849 256.977 -0.685001 271.738 6.73366L277.047 9.40212C280.536 11.1558 284.757 10.4755 287.518 7.71407C291.928 3.30401 290.665 -4.13967 285.047 -6.84807L229.919 -33.4252C223.788 -36.3808 216.459 -35.1371 211.646 -30.3245C206.907 -25.5853 205.621 -18.3956 208.425 -12.3078L234.008 43.2495Z" fill="#121212" fill-opacity="0.5"/>
<path d="M77.3598 199.898C80.1082 205.866 87.962 207.27 92.6083 202.624C95.4511 199.781 96.1814 195.45 94.4277 191.832L91.7764 186.363C84.5706 171.497 100.329 155.963 115.09 163.382L120.399 166.05C123.888 167.804 128.109 167.124 130.87 164.362C135.28 159.952 134.017 152.508 128.399 149.8L73.2707 123.223C67.1399 120.267 59.8106 121.511 54.998 126.324C50.2588 131.063 48.9733 138.253 51.7766 144.34L77.3598 199.898Z" fill="#121212" fill-opacity="0.5"/>
</svg>

